# xmcd CD database file
#
# Track frame offsets:
#	150
#	17683
#	33057
#	47377
#	63398
#	79636
#	96225
#	110465
#	122464
#	137676
#	151889
#	170449
#
# Disc length: 2662 seconds
#
# Revision: 0
# Processed by: cddbd v1.5.2PL0 Copyright (c) Steve Scherf et al.
# Submitted via: CDex 1.70beta2
#
DISCID=860a640c
DTITLE=montana news  - country on the rocks 
DYEAR=1900
DGENRE=Country
TTITLE0=Montana News - Tunica Motel
TTITLE1=Montana News - Long Sermon
TTITLE2=Montana News - Poor Boy
TTITLE3=Montana News - Something To Talk About
TTITLE4=Montana News - Please, Please Baby
TTITLE5=Montana News - Honky Tonk Nightime Man
TTITLE6=Montana News - Keep Your Hands To Yourself
TTITLE7=Montana News - Hillbilly Highway
TTITLE8=Montana News - Blue Bayou
TTITLE9=Montana News - I Found Love
TTITLE10=Montana News - Form Hell To Paradise
TTITLE11=Montana News - We Danced
EXTD=
EXTT0=
EXTT1=
EXTT2=
EXTT3=
EXTT4=
EXTT5=
EXTT6=
EXTT7=
EXTT8=
EXTT9=
EXTT10=
EXTT11=
PLAYORDER=
